<svg width="77" height="26" viewBox="0 0 77 26" fill="none" xmlns="http://www.w3.org/2000/svg">
<g clip-path="url(#clip0_32_10821)">
<path fill-rule="evenodd" clip-rule="evenodd" d="M13.4057 1.15918C13.381 1.15918 13.3562 1.15918 13.3314 1.15918C10.0044 1.15918 6.80327 1.93684 3.7012 3.50567C2.44221 6.51857 1.73222 9.58137 1.69507 12.7066C1.64553 15.8068 2.28019 18.9819 3.68778 22.2204C6.9271 23.6385 10.1664 24.3662 13.4057 24.4047C16.6451 24.3662 19.8844 23.6385 23.1227 22.2204C24.5313 18.9819 25.166 15.8068 25.1164 12.7066C25.0793 9.58137 24.3693 6.51857 23.1103 3.50567C20.0082 1.93684 16.8071 1.15918 13.48 1.15918C13.4553 1.15918 13.4305 1.15918 13.4057 1.15918Z" fill="#FEFEFE"/>
<path d="M3.17782 2.81642C6.44191 1.13426 9.82983 0.305664 13.3313 0.305664C13.356 0.305664 13.3808 0.305664 13.4056 0.305664C13.4303 0.305664 13.4551 0.305664 13.4799 0.305664C16.9813 0.305664 20.3692 1.13426 23.6333 2.81642L23.8335 3.02954C25.1658 6.19215 25.9263 9.41818 25.9635 12.6941C25.9635 12.7565 25.9635 12.8064 25.9635 12.8698V13.0954C25.9511 16.2456 25.2783 19.4591 23.8335 22.7226L23.6085 22.9357C20.2082 24.4546 16.8069 25.2198 13.4056 25.2583C10.0042 25.2198 6.60289 24.4546 3.20259 22.9357L2.97762 22.7226C1.53288 19.4591 0.86004 16.2456 0.847656 13.0954V12.8698C0.847656 12.8064 0.847656 12.7565 0.847656 12.6941C0.884807 9.41818 1.64536 6.19215 2.97762 3.02954L3.17782 2.81642ZM13.4056 1.15922C13.3808 1.15922 13.356 1.15922 13.3313 1.15922C10.0042 1.15922 6.80309 1.93687 3.70102 3.5057C2.44203 6.5186 1.73205 9.58141 1.69489 12.7066C1.64536 15.8068 2.28002 18.9819 3.68761 22.2204C6.92693 23.6385 10.1662 24.3662 13.4056 24.4047C16.6449 24.3662 19.8842 23.6385 23.1225 22.2204C24.5311 18.9819 25.1658 15.8068 25.1162 12.7066C25.0791 9.58141 24.3691 6.5186 23.1101 3.5057C20.008 1.93687 16.8069 1.15922 13.4799 1.15922C13.4551 1.15922 13.4303 1.15922 13.4056 1.15922Z" fill="#003399"/>
<path fill-rule="evenodd" clip-rule="evenodd" d="M13.6284 19.748C13.454 17.3506 13.5665 14.8523 12.8565 12.5682C12.196 10.4348 9.69144 9.21739 9.64191 6.86986C9.59238 5.03696 10.9752 2.91608 13.5665 2.91608C15.9957 2.9036 17.5034 4.68556 17.6778 6.66921C17.8893 8.9658 15.1237 10.5097 14.4013 12.694C13.6531 14.9282 13.8657 17.4005 13.6284 19.748Z" fill="#003399"/>
<path fill-rule="evenodd" clip-rule="evenodd" d="M14.5884 19.1697C14.4883 17.0862 14.4883 15.0911 15.062 13.3206C15.6967 11.3131 17.0176 9.61843 19.0361 9.06638C20.419 8.69003 22.4488 10.3212 22.1258 11.9909C21.8513 13.3341 20.518 14.9154 18.3757 15.0911C17.3788 15.1785 16.9557 15.9821 16.3324 16.4468C19.1228 16.1703 20.9298 15.0662 22.1877 13.9111C22.3745 14.8895 22.4994 16.5342 21.7388 17.0987C20.2445 18.1654 18.8617 17.2994 17.1043 17.8015C16.1208 18.0905 15.5099 18.7185 14.5884 19.1697Z" fill="#003399"/>
<path fill-rule="evenodd" clip-rule="evenodd" d="M12.6839 19.1697C12.7953 17.0862 12.783 15.0911 12.2226 13.3206C11.5869 11.3131 10.267 9.61843 8.24853 9.06638C6.8657 8.69003 4.82242 10.3212 5.15884 11.9909C5.43334 13.3341 6.7656 14.9154 8.90898 15.0911C9.89347 15.1785 10.329 15.9821 10.9523 16.4468C8.14843 16.1703 6.35488 15.0662 5.09692 13.9111C4.91014 14.8895 4.78527 16.5342 5.54479 17.0987C7.0401 18.1654 8.42293 17.2994 10.1793 17.8015C11.1638 18.0905 11.7613 18.7185 12.6839 19.1697Z" fill="#003399"/>
<path fill-rule="evenodd" clip-rule="evenodd" d="M19.3236 22.2704V21.9315L19.5733 21.8691L19.3236 21.4927V20.8648L20.4453 22.4336L20.047 22.5345L19.7725 22.1446L19.3236 22.2704ZM19.3236 20.8648V21.4927L19.1492 21.2411L19.0749 21.9949L19.3236 21.9315V22.2704L19.0377 22.3338L18.9871 22.7975L18.5888 22.8983L18.8509 20.8523L19.2493 20.7515L19.3236 20.8648ZM15.6116 23.3631V23.0366H15.6983C15.8355 23.0241 15.9233 23.0117 15.9604 22.9981C16.0099 22.9857 16.0595 22.9482 16.0853 22.9108C16.1224 22.8609 16.1348 22.81 16.1348 22.7476C16.1224 22.6852 16.11 22.6343 16.0719 22.5968C16.0471 22.5594 15.9976 22.5345 15.948 22.522C15.8985 22.5095 15.786 22.5095 15.6116 22.522V22.1955C15.7107 22.1955 15.7736 22.1831 15.7984 22.1831C15.8603 22.1706 15.9109 22.1321 15.948 22.0947C15.9852 22.0573 15.9976 22.0074 15.9852 21.9439C15.9852 21.8816 15.9604 21.8316 15.9233 21.8057C15.8985 21.7682 15.8479 21.7433 15.7736 21.7433C15.7488 21.7433 15.6983 21.7433 15.6116 21.7558V21.4293C15.7488 21.4168 15.8479 21.4168 15.9109 21.4293C15.9852 21.4293 16.0595 21.4553 16.1224 21.4927C16.1843 21.5177 16.2339 21.5676 16.2844 21.63C16.3216 21.6934 16.3464 21.7682 16.3587 21.8566C16.3711 21.9439 16.3464 22.0323 16.3092 22.1072C16.2721 22.1831 16.2091 22.2454 16.1224 22.2953C16.2463 22.3213 16.3464 22.3712 16.4083 22.4461C16.4836 22.522 16.5208 22.6093 16.5331 22.7226C16.5331 22.81 16.5208 22.8983 16.496 22.9857C16.4588 23.074 16.4083 23.1364 16.3464 23.1998C16.2721 23.2497 16.1967 23.2872 16.0977 23.3121C16.0347 23.3246 15.8727 23.3371 15.6364 23.3631H15.6116ZM17.9655 22.3078L18.3525 22.3588C18.3277 22.5719 18.2648 22.7476 18.1533 22.8734C18.0408 22.9857 17.8788 23.074 17.6796 23.1115C17.4299 23.1489 17.206 23.099 17.0192 22.9607C16.82 22.81 16.7075 22.5968 16.6456 22.2953C16.5951 21.9824 16.6332 21.7183 16.7695 21.5177C16.8943 21.317 17.0935 21.1912 17.3556 21.1413C17.5919 21.1029 17.7787 21.1413 17.9531 21.2536C18.0532 21.317 18.1399 21.4168 18.2029 21.5676L17.8417 21.7183C17.8045 21.63 17.7416 21.5551 17.6673 21.5177C17.5795 21.4678 17.4929 21.4553 17.3928 21.4678C17.2555 21.4927 17.1564 21.5676 17.0811 21.6809C17.0068 21.8057 16.9944 21.9699 17.0316 22.1955C17.0811 22.4336 17.1564 22.5968 17.2555 22.6852C17.3556 22.7725 17.4805 22.81 17.6167 22.785C17.7168 22.7601 17.7921 22.7102 17.854 22.6343C17.916 22.5594 17.9531 22.4461 17.9655 22.3078ZM15.6116 21.4293V21.7558C15.5621 21.7558 15.5115 21.7682 15.4496 21.7682L15.2256 21.7942L15.2628 22.233L15.5239 22.208C15.5486 22.208 15.5868 22.208 15.6116 22.1955V22.522C15.6116 22.522 15.6116 22.522 15.5992 22.522L15.2999 22.5469L15.3371 23.0616L15.6116 23.0366V23.3631L14.9883 23.4254L14.8139 21.5052L15.5744 21.4428C15.5868 21.4293 15.5992 21.4293 15.6116 21.4293ZM13.2071 22.6977V22.3712C13.2938 22.3712 13.3444 22.3588 13.3815 22.3463C13.4311 22.3338 13.4682 22.2953 13.5064 22.2579C13.5312 22.208 13.5435 22.1581 13.5435 22.1072C13.5559 22.0323 13.5312 21.9824 13.493 21.9315C13.4558 21.8816 13.4063 21.8566 13.3444 21.8441C13.3062 21.8441 13.269 21.8316 13.2071 21.8316V21.5052C13.3939 21.5052 13.5064 21.5177 13.5683 21.5426C13.6808 21.5676 13.7675 21.63 13.8428 21.7308C13.9171 21.8316 13.9543 21.9564 13.9419 22.1072C13.9419 22.2205 13.9171 22.3213 13.88 22.4087C13.8294 22.4835 13.7799 22.5469 13.718 22.5968C13.6426 22.6343 13.5807 22.6592 13.5064 22.6852C13.4311 22.6977 13.332 22.6977 13.2071 22.6977ZM13.2071 21.5052V21.8316C13.17 21.8316 13.1194 21.8316 13.0575 21.8316L12.8707 21.8192V22.3712H13.0699C13.1194 22.3712 13.17 22.3712 13.2071 22.3712V22.6977C13.1824 22.6977 13.1442 22.6977 13.107 22.6977H12.8583L12.8459 23.4254L12.459 23.413L12.4971 21.4927L13.107 21.5052C13.1442 21.5052 13.1824 21.5052 13.2071 21.5052ZM9.60662 22.5095V21.919C9.71911 21.9439 9.79341 21.9439 9.83056 21.9439C9.88112 21.9315 9.91827 21.919 9.95542 21.8816C9.98019 21.8441 10.005 21.8057 10.0173 21.7433C10.0297 21.6809 10.0173 21.63 9.99257 21.5801C9.96781 21.5302 9.91827 21.5052 9.85532 21.4802C9.83056 21.4678 9.74387 21.4553 9.60662 21.4293V21.1029L9.76864 21.1288C9.96781 21.1663 10.1051 21.2037 10.1917 21.2536C10.2795 21.3045 10.3414 21.3794 10.3785 21.4802C10.4167 21.5676 10.4291 21.6809 10.4043 21.7942C10.3785 21.9315 10.3166 22.0448 10.2175 22.1196C10.1298 22.1955 9.99257 22.233 9.81817 22.233C9.89351 22.2953 9.95542 22.3588 9.99257 22.4211C10.0421 22.497 10.0927 22.6093 10.1546 22.7725L10.3166 23.1874L9.86771 23.099L9.66854 22.6343C9.64377 22.5968 9.63139 22.5469 9.60662 22.5095ZM10.7026 21.317L11.0761 21.3544L10.9894 22.3962C10.9771 22.5594 10.9771 22.6727 10.9771 22.7102C10.9894 22.7975 11.0266 22.8609 11.0761 22.9108C11.1391 22.9732 11.2134 22.9981 11.3259 23.0117C11.4384 23.0241 11.525 22.9981 11.5746 22.9607C11.6375 22.9233 11.6747 22.8734 11.6994 22.81C11.7118 22.7476 11.7242 22.6343 11.7366 22.4835L11.8243 21.4168L12.2103 21.4553L12.1236 22.4586C12.1112 22.6977 12.0854 22.8609 12.0482 22.9482C12.0235 23.0366 11.9739 23.1239 11.9234 23.1738C11.8615 23.2373 11.7748 23.2872 11.6747 23.3121C11.587 23.3506 11.4631 23.3506 11.3135 23.3371C11.1267 23.3246 10.9894 23.2872 10.9017 23.2373C10.815 23.1874 10.7397 23.1239 10.6902 23.0616C10.6406 22.9857 10.6159 22.9108 10.6035 22.836C10.5911 22.7226 10.5911 22.5594 10.6035 22.3463L10.7026 21.317ZM7.67582 21.8816L7.75012 21.5676L8.56021 21.7807L8.36105 22.522C8.26095 22.5844 8.13608 22.6218 7.96168 22.6343C7.79966 22.6467 7.65106 22.6343 7.50142 22.5968C7.30122 22.5469 7.14024 22.4586 7.02775 22.3463C6.90289 22.2205 6.82858 22.0697 6.79143 21.9065C6.76564 21.7308 6.76564 21.5551 6.8162 21.3794C6.86574 21.1912 6.95242 21.028 7.07729 20.8897C7.18977 20.765 7.3394 20.6891 7.51381 20.6516C7.65106 20.6142 7.81204 20.6267 7.98748 20.6766C8.21141 20.739 8.38581 20.8273 8.48488 20.9656C8.58498 21.0904 8.63452 21.2536 8.62213 21.4293L8.23618 21.4044C8.23618 21.3045 8.21141 21.2162 8.14846 21.1413C8.08654 21.0779 8.01224 21.0155 7.89976 20.9906C7.73774 20.9531 7.60049 20.9656 7.47562 21.0405C7.35179 21.1164 7.26407 21.2661 7.20215 21.4678C7.14024 21.6934 7.15262 21.8691 7.21454 22.0074C7.28884 22.1446 7.40132 22.233 7.55096 22.2704C7.63764 22.2953 7.71297 22.2953 7.79966 22.2953C7.88738 22.2829 7.96168 22.2579 8.03701 22.233L8.09893 21.9949L7.67582 21.8816ZM9.60662 21.1029L8.95855 20.9906L8.63451 22.8859L9.00808 22.9482L9.14534 22.1581L9.23305 22.1706C9.31974 22.1831 9.38269 22.208 9.41984 22.2205C9.45699 22.2454 9.48175 22.2829 9.5189 22.3213C9.53129 22.3588 9.56947 22.4211 9.60662 22.5095V21.919C9.56947 21.919 9.53129 21.9065 9.48176 21.9065L9.20829 21.8566L9.28259 21.3794L9.58185 21.4293C9.59424 21.4293 9.60662 21.4293 9.60662 21.4293V21.1029Z" fill="#003399"/>
<path fill-rule="evenodd" clip-rule="evenodd" d="M68.9813 18.7559V15.2159H70.5262V8.99047L68.9813 12.1032V4.33388H75.0482L76.5931 22.2325H70.5262V18.7559H68.9813ZM68.9813 4.33388V12.1032L67.4365 15.2159H68.9813V18.7559H66.0661L64.87 22.0443H61.1075V17.9522L65.3055 8.82724H64.4459L66.838 4.33388H68.9813ZM61.1075 10.2963L62.9888 5.8029L61.1075 4.7487V10.2963ZM46.1451 8.57669C46.2328 8.06206 46.2328 7.55991 46.1451 7.08271V8.57669ZM61.1075 4.7487V10.2963L60.8588 10.8982C57.1458 8.22529 51.664 10.6601 51.3524 13.4838C51.0418 16.4333 53.2718 18.8183 58.9651 17.0363L57.0085 22.3073C49.4969 23.1484 46.5816 20.149 46.1451 16.6475V14.6638C46.2576 13.7479 46.4939 12.8569 46.8179 12.0283C50.5185 2.76505 56.5225 4.84851 58.8031 4.67281L59.1395 3.64355L61.1075 4.7487ZM61.1075 17.9522L59.2262 22.0443H61.1075V17.9522ZM39.393 21.931C43.4166 21.1284 47.3659 16.2576 43.4042 12.3797C44.9491 11.5511 45.9088 10.0582 46.1451 8.57669V7.08271C45.8716 5.53883 44.688 4.28398 42.4579 4.24655L39.393 4.18313V7.62229H40.6633C42.0214 7.62229 41.847 11.1623 40.1525 11.1623H39.393V13.8737C41.2247 14.2251 40.5766 16.7847 39.393 17.5759V21.931ZM46.1451 14.6638V16.6475C46.0708 15.9946 46.0708 15.3292 46.1451 14.6638ZM34.0856 4.07085L31.6069 8.91561L32.7152 8.82724L29.7256 22.0443H38.2847C38.6582 22.0443 39.0194 22.0069 39.393 21.931V17.5759C39.1814 17.7266 38.9441 17.814 38.7078 17.814H35.6305L36.6521 13.8352H38.9565C39.1185 13.8352 39.2681 13.8477 39.393 13.8737V11.1623H37.2496L38.1092 7.62229H39.393V4.18313L34.0856 4.07085Z" fill="#003399"/>
</g>
<defs>
<clipPath id="clip0_32_10821">
<rect width="75.749" height="24.9526" fill="white" transform="translate(0.845703 0.305664)"/>
</clipPath>
</defs>
</svg>
