<svg width="41" height="35" viewBox="0 0 41 35" fill="none" xmlns="http://www.w3.org/2000/svg">
<g clip-path="url(#clip0_32_10830)">
<path fill-rule="evenodd" clip-rule="evenodd" d="M8.74641 4.10015C8.74641 2.19288 10.2994 0.646484 12.2148 0.646484H29.4622C31.3776 0.646484 32.9292 2.19288 32.9292 4.10015V21.274C32.9292 23.1813 31.3776 24.7277 29.4622 24.7277H12.2148C10.2994 24.7277 8.74641 23.1813 8.74641 21.274V4.10015ZM12.9652 22.3679C11.9444 22.3679 11.1163 21.5433 11.1163 20.5255V4.85291C11.1163 3.83654 11.9444 3.01189 12.9652 3.01189H15.0745C17.8549 3.01189 19.9134 5.81571 18.1353 7.58906L12.9779 12.7315L17.4048 17.3495C19.5509 19.5881 17.0367 22.3679 14.6555 22.3679H12.9652ZM19.66 3.01189H21.4423C24.2213 3.01189 26.2797 5.81571 24.503 7.58906L19.3443 12.7315L28.8265 22.3637L18.8204 22.3623C20.9695 22.3623 22.3271 18.7606 20.0266 16.3755L16.5129 12.7315L20.6028 8.53353C22.8056 6.27244 21.2073 3.3629 19.66 3.01189ZM30.5579 20.5255L22.8792 12.7315L26.9706 8.53353C29.1734 6.27244 27.5737 3.3629 26.0263 3.01189H28.7048C29.7269 3.01189 30.5551 3.83654 30.5551 4.85291L30.5579 20.5255ZM2.36165 32.0058V33.4098H2.99022C3.31724 33.4098 3.56499 33.3478 3.73345 33.2265C3.90192 33.1053 3.98686 32.9277 3.98686 32.6951C3.98686 32.4653 3.909 32.2933 3.75469 32.1777C3.60038 32.0636 3.36962 32.0058 3.06242 32.0058H2.36165ZM2.36165 29.6122V30.9471H2.84723C3.18558 30.9471 3.43757 30.8893 3.60604 30.7765C3.77309 30.6624 3.85662 30.489 3.85662 30.2564C3.85662 30.0449 3.77876 29.8856 3.6202 29.7757C3.46306 29.6671 3.22947 29.6122 2.92368 29.6122H2.36165ZM0.795898 28.5352H3.25212C3.97837 28.5352 4.52482 28.6649 4.89007 28.9243C5.25673 29.185 5.43936 29.5713 5.43936 30.0844C5.43936 30.4284 5.34309 30.7159 5.15197 30.9443C4.96086 31.1727 4.68196 31.3376 4.3153 31.4377C4.72727 31.5138 5.04297 31.6745 5.26381 31.9198C5.48466 32.1651 5.59508 32.478 5.59508 32.8586C5.59508 33.4197 5.39406 33.8355 4.99058 34.1062C4.58853 34.3754 3.96846 34.5107 3.13037 34.5107H0.795898V28.5352H0.795898ZM9.02105 29.8687L8.24384 32.1087H9.77278L9.02105 29.8687ZM8.08811 28.5352H10.0177L12.2899 34.5107H10.5797L10.1536 33.2449H7.8432L7.39584 34.5107H5.8131L8.08811 28.5352ZM12.6353 28.5352H14.6328L16.3699 32.1185C16.4294 32.2384 16.4987 32.4061 16.578 32.6204C16.6559 32.8346 16.7436 33.0983 16.8385 33.4098C16.7889 33.1152 16.7507 32.8445 16.7266 32.5978C16.7026 32.3511 16.6913 32.1256 16.6913 31.9212V28.5352H18.1353V34.5107H16.1462L14.3412 30.7977C14.2577 30.6271 14.1798 30.441 14.109 30.2409C14.0397 30.0407 13.9745 29.8222 13.9151 29.5868C13.9717 29.9434 14.0128 30.2705 14.0397 30.5693C14.0666 30.8668 14.0807 31.1304 14.0807 31.3573V34.5107H12.6353V28.5352ZM19.2706 28.5352H20.8704V31.1177L22.7292 28.5352H24.52L22.3158 31.2812L24.7451 34.5107H22.7575L20.8704 31.7393V34.5107H19.2706V28.5352ZM29.3999 32.0058V33.4098H30.0299C30.3555 33.4098 30.6032 33.3478 30.7717 33.2265C30.9416 33.1053 31.0251 32.9277 31.0251 32.6951C31.0251 32.4653 30.9487 32.2933 30.7929 32.1777C30.6386 32.0636 30.4079 32.0058 30.1007 32.0058H29.3999ZM29.3999 29.6122V30.9471H29.8855C30.2238 30.9471 30.4772 30.8893 30.6443 30.7765C30.8113 30.6624 30.8963 30.489 30.8963 30.2564C30.8963 30.0449 30.817 29.8856 30.6584 29.7757C30.5013 29.6671 30.2691 29.6122 29.9619 29.6122H29.3999ZM27.8341 28.5352H30.2918C31.018 28.5352 31.5631 28.6649 31.9297 28.9243C32.295 29.185 32.4776 29.5713 32.4776 30.0844C32.4776 30.4284 32.3828 30.7159 32.1916 30.9443C31.9991 31.1727 31.7202 31.3376 31.355 31.4377C31.7655 31.5138 32.0812 31.6745 32.3021 31.9198C32.5229 32.1651 32.6333 32.478 32.6333 32.8586C32.6333 33.4197 32.4323 33.8355 32.0302 34.1062C31.6282 34.3754 31.0067 34.5107 30.1686 34.5107H27.8341V28.5352ZM35.1433 29.5868V31.1191H35.7054C36.0508 31.1191 36.3113 31.0557 36.484 30.9316C36.6567 30.8061 36.7431 30.6187 36.7431 30.3692C36.7431 30.0999 36.6468 29.9026 36.4543 29.7757C36.2617 29.6488 35.9574 29.5868 35.5397 29.5868H35.1433ZM33.579 28.5352H35.963C36.7572 28.5352 37.3462 28.6635 37.7312 28.92C38.1163 29.1766 38.3088 29.5671 38.3088 30.0914C38.3088 30.4791 38.2069 30.7977 38.0045 31.0472C37.8006 31.2967 37.5075 31.463 37.1239 31.5476C37.4396 31.6618 37.693 31.9889 37.8855 32.5273L38.6019 34.5107H36.9342L36.4061 32.8755C36.3212 32.6119 36.2065 32.4301 36.0593 32.3286C35.9135 32.2285 35.6856 32.1777 35.3755 32.1777H35.1433V34.5107H33.579V28.5352ZM39.2602 28.5352H40.8599V34.5107H39.2602V28.5352Z" fill="#1F4396"/>
</g>
<defs>
<clipPath id="clip0_32_10830">
<rect width="40.1024" height="33.8642" fill="white" transform="translate(0.776367 0.646484)"/>
</clipPath>
</defs>
</svg>
