<svg width="96" height="33" viewBox="0 0 96 33" fill="none" xmlns="http://www.w3.org/2000/svg">
<g clip-path="url(#clip0_32_10790)">
<path d="M52.1535 27.7996C52.0562 29.6307 51.2413 30.8836 49.679 31.6438C49.2249 31.8635 48.8018 31.6893 48.5955 31.2241C48.4359 30.8641 48.6189 30.456 49.0458 30.2649C50.1526 29.7711 50.6379 28.7587 50.6171 27.8048C50.5912 26.6442 49.8983 25.7592 48.807 25.3784C47.756 25.0132 46.6582 25.368 45.8823 26.3258C45.2867 27.0614 45.2361 28.3324 45.759 29.1837C46.0484 29.6567 46.4312 30.0128 46.9346 30.2506C47.4095 30.4742 47.5769 30.8875 47.3849 31.2968C47.189 31.714 46.7244 31.8479 46.2586 31.6113C45.0077 30.9797 44.1877 29.9972 43.9372 28.6027C43.5415 26.3986 44.9156 24.4219 46.8957 23.8734C49.2365 23.2249 51.4839 24.7065 52.0082 26.8496C52.0899 27.1875 52.1146 27.541 52.1535 27.7996Z" fill="#00AA11"/>
<path d="M58.1298 25.5623C58.1427 25.3869 58.1518 25.2478 58.1635 25.088C58.5683 25.088 58.9576 25.088 59.3715 25.088C59.3806 25.1764 59.3975 25.2608 59.3975 25.3453C59.3988 26.7749 59.4053 28.2058 59.3949 29.6366C59.3871 30.5191 59.0471 31.2456 58.2595 31.69C57.2734 32.2489 55.7344 32.0734 54.8534 31.3313C54.7703 31.2611 54.6912 31.1871 54.5939 31.1C54.856 30.8414 55.1129 30.5879 55.3958 30.3098C55.8356 30.6633 56.3287 30.8414 56.9048 30.8245C57.7937 30.7972 58.2323 30.3098 58.1168 29.3611C57.372 29.9446 56.5519 29.9667 55.7176 29.6873C55.2206 29.521 54.8287 29.1883 54.5497 28.723C53.9619 27.7418 54.1138 26.4968 54.9273 25.7365C55.7993 24.9216 57.1176 24.8385 58.1298 25.5623ZM58.0791 27.4637C58.0791 26.6345 57.6302 26.1823 56.8127 26.1901C56.0432 26.1966 55.5255 26.7021 55.497 27.4039C55.4606 28.3201 56.0549 28.7321 56.8413 28.7217C57.6496 28.71 58.0791 28.2824 58.0791 27.4637Z" fill="black"/>
<path d="M78.6228 25.0736C77.878 25.7767 77.1994 26.4187 76.5104 27.0698C77.2111 28.003 77.8962 28.9153 78.628 29.89C78.1272 29.89 77.7132 29.903 77.3006 29.8809C77.2046 29.8757 77.0904 29.773 77.0255 29.686C76.644 29.1765 76.2768 28.6567 75.9031 28.142C75.8408 28.0549 75.7734 27.9718 75.6618 27.8236C75.3932 28.1316 75.0506 28.3734 74.9338 28.6983C74.8119 29.0375 74.9066 29.4546 74.9066 29.8913C74.6834 29.8913 74.4901 29.8913 74.2967 29.8913C74.1125 29.8913 73.9269 29.8913 73.7128 29.8913C73.7037 29.747 73.6921 29.6314 73.6921 29.5144C73.6908 27.7106 73.6999 25.9054 73.6817 24.1002C73.6791 23.7532 73.7855 23.6532 74.1125 23.6882C74.3603 23.7155 74.612 23.6934 74.9027 23.6934C74.9027 24.7903 74.9027 25.8482 74.9027 26.9958C75.2803 26.654 75.5956 26.3745 75.9044 26.0886C76.2197 25.7988 76.526 25.4999 76.8426 25.2127C76.9113 25.1503 77.0061 25.0814 77.0917 25.0788C77.5692 25.0671 78.048 25.0736 78.6228 25.0736Z" fill="black"/>
<path d="M69.2978 27.8911C69.3731 28.4005 69.8597 28.7904 70.4202 28.8346C70.8938 28.8723 71.3376 28.8034 71.7243 28.4954C71.7866 28.446 71.9189 28.407 71.9721 28.4395C72.2316 28.5994 72.4743 28.7839 72.7468 28.9763C71.9072 29.8145 70.9509 30.0445 69.8532 29.7729C68.9592 29.552 68.3117 29.049 68.1015 28.1315C67.646 26.134 69.1823 24.8136 70.9574 25.1151C71.9877 25.2892 72.6287 25.8949 72.8701 26.9034C72.9427 27.2049 72.922 27.5285 72.9466 27.8911C72.3017 27.8911 71.7009 27.8911 71.1002 27.8911C70.5085 27.8911 69.9155 27.8911 69.2978 27.8911ZM71.6815 26.9709C71.5984 26.3718 71.1222 26.0859 70.3216 26.1236C69.7481 26.1496 69.3588 26.4771 69.3303 26.9709C70.1088 26.9709 70.8848 26.9709 71.6815 26.9709Z" fill="black"/>
<path d="M62.6715 25.0049C64.091 25.0621 65.146 25.9471 65.2524 27.326C65.3237 28.2669 64.9111 29.022 64.0858 29.5288C63.1399 30.1098 61.6399 29.9538 60.8393 29.1792C59.6378 28.0161 60.005 25.9653 61.5439 25.322C61.9007 25.1725 62.2939 25.1089 62.6715 25.0049ZM63.9626 27.4845C63.96 26.7022 63.4617 26.1849 62.7078 26.1901C61.8618 26.1966 61.4193 26.7425 61.3908 27.4871C61.3635 28.2032 61.976 28.7777 62.6935 28.7725C63.4604 28.766 63.9652 28.2539 63.9626 27.4845Z" fill="black"/>
<path d="M65.9975 25.0762C66.4322 25.0762 66.815 25.0762 67.251 25.0762C67.251 25.184 67.251 25.288 67.251 25.392C67.251 27.1322 67.251 28.8723 67.2497 30.6125C67.2497 31.4898 66.7384 32.0005 65.8613 32.0031C65.5239 32.0044 65.1852 32.0044 64.8115 32.0044C64.8115 31.7978 64.8115 31.6249 64.8115 31.4521C64.8115 31.2779 64.8115 31.1025 64.8115 30.8673C65.0373 30.8673 65.2423 30.8751 65.446 30.8647C65.9093 30.8426 65.9975 30.7477 65.9975 30.2902C65.9975 28.6826 65.9975 27.075 65.9975 25.4674C65.9975 25.3478 65.9975 25.2295 65.9975 25.0762Z" fill="black"/>
<path d="M46.4738 27.8179C46.379 27.1135 47.2705 26.2662 48.027 26.3155C48.8652 26.3714 49.5581 27.0251 49.5529 27.8634C49.5477 28.6977 48.8237 29.4346 47.9906 29.4125C47.1563 29.3904 46.4244 28.7289 46.4738 27.8179Z" fill="#00AA11"/>
<path d="M17.4805 25.6602H18.7742C19.4787 25.6602 19.8953 26.0578 19.8953 26.6959C19.8953 27.3445 19.4839 27.7239 18.7742 27.7239H17.8736V29.0197H17.4805V25.6602ZM18.7508 27.3497C19.2633 27.3497 19.4982 27.143 19.4982 26.6959C19.4982 26.2502 19.253 26.0344 18.7508 26.0344H17.8736V27.3497H18.7508Z" fill="black"/>
<path d="M21.2862 26.4033C22.0051 26.4033 22.4852 26.9453 22.4852 27.7471C22.4852 28.549 22.0051 29.0909 21.2862 29.0909C20.5726 29.0909 20.0938 28.549 20.0938 27.7471C20.0938 26.9453 20.5726 26.4033 21.2862 26.4033ZM21.2862 26.7542C20.7841 26.7542 20.4675 27.1376 20.4675 27.7471C20.4675 28.3566 20.7841 28.74 21.2862 28.74C21.7897 28.74 22.1115 28.3566 22.1115 27.7471C22.1115 27.1376 21.7897 26.7542 21.2862 26.7542Z" fill="black"/>
<path d="M22.7256 26.4746H23.0941L23.5534 28.4526H23.5638L24.2437 26.4746H24.5837L25.2649 28.4526H25.274L25.7347 26.4746H26.1032L25.4946 29.0193H25.1404L24.4215 26.9412H24.4111L23.6884 29.0193H23.3329L22.7256 26.4746Z" fill="black"/>
<path d="M27.521 26.4033C28.2022 26.4033 28.6564 26.9167 28.6564 27.6652V27.8576H26.7256C26.7359 28.3475 27.0474 28.7504 27.5119 28.7504C27.8713 28.7504 28.0724 28.6205 28.2878 28.241L28.5993 28.4281C28.3839 28.8648 28.0154 29.0909 27.521 29.0909C26.8164 29.0909 26.3467 28.549 26.3467 27.7471C26.3467 26.9453 26.832 26.4033 27.521 26.4033ZM28.2788 27.5548C28.2736 27.3195 28.197 27.1285 28.0582 26.9739C27.9193 26.8205 27.7416 26.7438 27.521 26.7438C27.0902 26.7438 26.745 27.1285 26.736 27.5548H28.2788Z" fill="black"/>
<path d="M29.1904 26.4745H29.5447V26.6864H29.5538C29.6498 26.5278 29.8366 26.4316 30.0806 26.4316C30.1571 26.4316 30.2441 26.4459 30.3349 26.4706L30.2532 26.8592C30.1623 26.8306 30.0767 26.8163 30.004 26.8163C29.703 26.8163 29.5628 27.0178 29.5628 27.4921V29.0192H29.1904V26.4745Z" fill="black"/>
<path d="M31.6811 26.4033C32.3611 26.4033 32.8165 26.9167 32.8165 27.6652V27.8576H30.8857C30.8948 28.3475 31.2062 28.7504 31.6708 28.7504C32.0302 28.7504 32.2326 28.6205 32.448 28.241L32.7594 28.4281C32.544 28.8648 32.1742 29.0909 31.6811 29.0909C30.9766 29.0909 30.5068 28.549 30.5068 27.7471C30.5068 26.9453 30.9908 26.4033 31.6811 26.4033ZM32.4376 27.5548C32.4337 27.3195 32.3572 27.1285 32.2183 26.9739C32.0782 26.8205 31.9017 26.7438 31.6811 26.7438C31.2503 26.7438 30.9052 27.1285 30.8948 27.5548H32.4376Z" fill="black"/>
<path d="M34.3925 26.4033C34.7 26.4033 34.9725 26.5332 35.1399 26.7438H35.1503V25.5156H35.524V29.0194H35.1646V28.7647H35.1542C34.9868 28.9713 34.7039 29.0909 34.3925 29.0909C33.7321 29.0909 33.252 28.5385 33.252 27.7471C33.252 26.9556 33.7321 26.4033 34.3925 26.4033ZM35.1503 27.4975C35.1503 27.0843 34.8142 26.7542 34.3925 26.7542C33.9371 26.7542 33.6257 27.1466 33.6257 27.7471C33.6257 28.3475 33.9371 28.74 34.4172 28.74C34.8194 28.74 35.1503 28.4047 35.1503 27.9914V27.4975Z" fill="black"/>
<path d="M37.8093 28.7647V29.0194H37.4512V25.5156H37.8236V26.7438H37.834C38.0013 26.5332 38.2751 26.4033 38.5814 26.4033C39.2431 26.4033 39.7219 26.9556 39.7219 27.7471C39.7219 28.5385 39.2431 29.0909 38.5814 29.0909C38.2699 29.0909 37.9871 28.9713 37.8197 28.7647H37.8093ZM38.5814 26.7542C38.1596 26.7542 37.8236 27.0843 37.8236 27.4975V27.9914C37.8236 28.4047 38.1545 28.74 38.5567 28.74C39.0368 28.74 39.3482 28.3475 39.3482 27.7471C39.3482 27.1466 39.0368 26.7542 38.5814 26.7542Z" fill="black"/>
<path d="M40.8238 28.8022L39.8467 26.4746H40.245L41.0158 28.3707H41.0249L41.8021 26.4746H42.1992L40.6758 30.0979H40.2879L40.8238 28.8022Z" fill="black"/>
<path d="M11.1299 0.844727C16.821 0.844727 21.4352 5.305 21.4352 10.8063C21.4352 16.3075 16.821 20.7678 11.1299 20.7678C5.43742 20.7678 0.823242 16.3075 0.823242 10.8063C0.823242 5.305 5.43742 0.844727 11.1299 0.844727Z" fill="#00AED6"/>
<path fill-rule="evenodd" clip-rule="evenodd" d="M17.1412 10.4994C17.062 9.23102 15.9461 8.25891 14.6329 8.3161H8.12301C7.88556 8.3161 7.69352 8.13025 7.69352 7.90022C7.69352 7.67149 7.88556 7.48564 8.12301 7.48564H14.7186C14.681 6.6266 14.0737 5.88841 13.216 5.65968C11.293 5.32698 9.32457 5.32698 7.40156 5.65968C6.309 5.91961 5.49153 6.79814 5.34101 7.87553C5.03998 9.83015 5.03998 11.816 5.34101 13.7693C5.57068 14.9103 6.50753 15.7928 7.69352 15.9864C10.0772 16.2762 12.4894 16.2762 14.873 15.9864C15.9357 15.7785 16.7389 14.935 16.8661 13.894C17.0841 12.7751 17.1762 11.6366 17.1412 10.4994ZM14.9937 11.8939V12.2591C14.9937 12.4879 14.8016 12.6737 14.5642 12.6737C14.3267 12.6737 14.1347 12.4879 14.1347 12.2591V11.8939C13.9958 11.777 13.918 11.6067 13.9206 11.4287C13.9206 11.0843 14.2086 10.8062 14.5642 10.8062C14.9197 10.8062 15.2078 11.0843 15.2078 11.4287C15.2065 11.6054 15.1286 11.7744 14.9937 11.8939Z" fill="white"/>
<path d="M50.7898 9.68615C50.8041 7.93947 49.3508 6.51249 47.5433 6.49819C45.7357 6.4852 44.2604 7.88878 44.2461 9.63547C44.2318 11.3821 45.6851 12.8104 47.4927 12.8234C47.5095 12.8234 47.5264 12.8234 47.5433 12.8234C49.2573 12.9131 50.7223 11.6408 50.8144 9.98376C50.8196 9.88499 50.8196 9.78492 50.8157 9.68615H50.7898ZM41.0684 9.68615C41.0684 6.36563 43.7816 3.83398 47.5433 3.83398C51.3049 3.83398 54.0194 6.38123 54.0194 9.68615C54.0194 12.9898 51.3309 15.5461 47.5433 15.5461C43.7556 15.5461 41.0684 12.9976 41.0684 9.68615Z" fill="black"/>
<path d="M35.9155 10.2907C35.9155 11.6605 34.4726 12.7808 32.6443 12.7808C30.9639 12.9459 29.4639 11.7619 29.294 10.1374C29.2771 9.97364 29.2745 9.80859 29.2862 9.64353C29.2862 7.83317 30.6603 6.58814 32.7728 6.58814C34.4907 6.58814 35.9155 7.7253 35.9155 9.01192V10.2907ZM36.0439 3.82386V5.13517C34.9994 4.21764 33.6149 3.74848 32.2057 3.83296C28.8735 3.86155 26.1979 6.49717 26.2278 9.71761C26.2589 12.9381 28.9851 15.5256 32.3173 15.4957C33.6888 15.5555 35.0241 15.059 36.0011 14.1259V15.2462C36.0011 16.7654 34.6452 17.8779 32.8584 17.8779C31.4946 17.9728 30.1504 17.5166 29.1486 16.616L27.0608 18.5589C28.6257 20.0431 30.7524 20.841 32.944 20.7669C36.6032 20.7669 39.1101 18.3925 39.1101 15.2306V3.82386H36.0439Z" fill="black"/>
<path d="M55.9102 4.16545H58.9841V5.14536H59.0269C60.0351 4.25642 61.3665 3.79116 62.7289 3.84964C66.0754 3.97181 68.6861 6.6932 68.5602 9.92664C68.4409 12.9911 65.8989 15.4474 62.7289 15.5631C61.4274 15.5917 60.1571 15.1784 59.1385 14.3921V19.9376H55.9361L55.9102 4.16545ZM62.2306 6.58923C60.5127 6.58923 59.1139 7.74329 59.1139 8.99742V10.3997C59.1139 11.7357 60.4958 12.8404 62.2475 12.8404C64.0343 12.9288 65.5563 11.6018 65.6485 9.87596C65.7406 8.15007 64.3678 6.6789 62.581 6.58923C62.4707 6.58403 62.3591 6.58403 62.2475 6.58923H62.2306Z" fill="black"/>
<path d="M74.7089 8.61528C76.8135 8.34106 77.4403 8.04995 77.4403 7.48592C77.4403 6.75553 76.6423 6.31496 75.4044 6.31496C74.0718 6.2097 72.8585 7.05964 72.5445 8.31637L69.5225 7.70945C69.952 5.45202 72.3564 3.8418 75.3187 3.8418C78.6691 3.8418 80.7465 5.50141 80.7465 8.19161V15.2394H77.8698V14.0113H77.8269C76.8512 15.0731 75.4199 15.6371 73.9537 15.5383C71.4195 15.5383 69.6587 14.201 69.6587 12.2178C69.6587 10.2333 71.1016 9.09614 74.7089 8.61528ZM77.6985 9.78494H77.6557C77.3715 10.1839 76.7967 10.4165 75.2071 10.6817C73.3269 11.0222 72.6315 11.3796 72.6315 12.0268C72.6315 12.674 73.1894 12.9898 74.4 12.9898C76.2465 12.9898 77.6725 12.1593 77.6725 11.1053L77.6985 9.78494Z" fill="black"/>
<path d="M86.5444 14.6165L81.2451 4.16504H84.7758L88.2533 11.4039H88.3052L91.7399 4.16504H95.2875L87.3515 19.9372H83.8221L86.5444 14.6165Z" fill="black"/>
</g>
<defs>
<clipPath id="clip0_32_10790">
<rect width="94.4634" height="31.1908" fill="white" transform="translate(0.823242 0.835938)"/>
</clipPath>
</defs>
</svg>
