<svg width="80" height="27" viewBox="0 0 80 27" fill="none" xmlns="http://www.w3.org/2000/svg">
<path d="M4.26411 2.60138C4.26411 3.21974 4.25211 3.94513 4.22811 4.77755C4.20411 5.58618 4.18011 6.20454 4.15611 6.63264C4.08411 7.84559 4.04811 9.05854 4.04811 10.2715C4.04811 11.1753 4.08411 12.1147 4.15611 13.0898C4.90011 12.0196 5.70411 11.2347 6.56811 10.7353C7.43211 10.2358 8.47611 9.98609 9.70011 9.98609C10.5881 9.98609 11.4161 10.3785 12.1841 11.1634C12.9521 11.9482 13.4441 12.8639 13.6601 13.9103C13.7321 14.8379 13.7681 15.9676 13.7681 17.2994C13.7681 18.1556 13.8161 19.2735 13.9121 20.6529C13.9601 21.1761 14.0921 21.6637 14.3081 22.1156C14.5481 22.5674 14.8841 22.7934 15.3161 22.7934C15.5321 22.7934 15.7001 22.7815 15.8201 22.7577C15.9641 22.7339 16.0961 22.722 16.2161 22.722C16.5521 22.722 16.7801 22.8053 16.9001 22.9718C17.0441 23.1382 17.1161 23.3761 17.1161 23.6853C17.1161 24.2561 16.8281 24.6842 16.2521 24.9696C15.6761 25.255 15.1481 25.3977 14.6681 25.3977C12.9401 25.3977 11.7521 24.6842 11.1041 23.2572C10.7441 22.4485 10.5161 21.4021 10.4201 20.1178C10.3241 18.8097 10.2761 17.2876 10.2761 15.5514C10.2761 13.839 9.68811 12.9828 8.51211 12.9828C7.86411 12.9828 7.20411 13.3276 6.53211 14.0174C5.88411 14.6833 5.34411 15.5752 4.91211 16.693C4.48011 17.787 4.26411 18.9286 4.26411 20.1178L4.30011 23.828C4.30011 24.3512 4.09611 24.7436 3.68811 25.0052C3.28011 25.2431 2.89611 25.362 2.53611 25.362C2.00811 25.362 1.52811 25.2074 1.09611 24.8982C0.664109 24.5652 0.448109 24.1966 0.448109 23.7923C0.616109 22.0085 0.700109 19.0237 0.700109 14.8379C0.700109 14.0768 0.640109 11.2585 0.520109 6.38292L0.412109 3.10083C0.412109 2.57759 0.652109 2.12571 1.13211 1.74518C1.61211 1.34086 2.15211 1.1387 2.75211 1.1387C3.28011 1.1387 3.66411 1.25762 3.90411 1.49545C4.14411 1.73329 4.26411 2.10193 4.26411 2.60138ZM21.6152 2.31598C22.4552 2.38733 23.1872 2.61327 23.8112 2.9938C24.4352 3.35055 24.7472 3.89757 24.7472 4.63485C24.7472 5.18186 24.4832 5.62185 23.9552 5.95482C23.4512 6.264 22.8392 6.41859 22.1192 6.41859C21.4232 6.41859 20.9432 6.24022 20.6792 5.88347C20.4152 5.52672 20.2832 5.15808 20.2832 4.77755C20.2832 4.06405 20.3552 3.46947 20.4992 2.9938C20.6672 2.51813 21.0392 2.29219 21.6152 2.31598ZM24.4952 18.12V19.1545C24.4952 20.0821 24.5192 20.9621 24.5672 21.7945C24.6392 22.6031 24.7232 23.4236 24.8192 24.2561C24.7952 24.4939 24.6152 24.7436 24.2792 25.0052C23.9432 25.2431 23.6432 25.362 23.3792 25.362C22.9232 25.362 22.4552 25.2787 21.9752 25.1123C21.5192 24.922 21.2432 24.6961 21.1472 24.4344C21.0032 23.6734 20.9312 22.9955 20.9312 22.401C20.9312 20.4507 20.8712 18.2627 20.7512 15.8368C20.6552 13.6963 20.6072 12.1979 20.6072 11.3417C20.6072 10.9136 20.8232 10.545 21.2552 10.2358C21.6872 9.92663 22.1432 9.77204 22.6232 9.77204C23.3192 9.77204 23.7992 9.92663 24.0632 10.2358C24.3512 10.545 24.4952 11.0326 24.4952 11.6985V18.12ZM36.9061 4.20675C36.1861 4.20675 35.7421 4.80133 35.5741 5.99049C35.4061 7.60776 35.3221 8.8326 35.3221 9.66501C35.8021 9.71258 36.3061 9.73636 36.8341 9.73636C37.1701 9.73636 37.6021 9.71258 38.1301 9.66501L39.0661 9.62934C39.5461 9.62934 39.9061 9.71258 40.1461 9.87906C40.3861 10.0455 40.5061 10.3191 40.5061 10.6996C40.5061 11.2228 40.3261 11.6747 39.9661 12.0552C39.6301 12.412 39.2341 12.5904 38.7781 12.5904C37.0501 12.5904 35.8861 12.6736 35.2861 12.8401C35.2861 14.2909 35.3581 16.3481 35.5021 19.0118L35.5741 20.7599L35.7181 23.5426C35.7661 24.2323 35.6941 24.7198 35.5021 25.0052C35.3341 25.2669 34.9621 25.3977 34.3861 25.3977C33.3301 25.3977 32.6461 24.7674 32.3341 23.5069C32.1421 22.5793 31.9861 21.2831 31.8661 19.6183C31.7461 17.9535 31.6861 16.467 31.6861 15.159C31.6861 14.4692 31.7221 13.6844 31.7941 12.8044C31.7461 12.7806 31.6141 12.7687 31.3981 12.7687C31.1821 12.7687 31.0261 12.7806 30.9301 12.8044C30.2101 12.852 29.6821 12.8758 29.3461 12.8758C29.1301 12.8758 28.9141 12.7331 28.6981 12.4477C28.4821 12.1385 28.3741 11.7698 28.3741 11.3417C28.3741 11.1039 28.4581 10.8899 28.6261 10.6996C28.7941 10.4855 28.9981 10.3309 29.2381 10.2358C29.5981 10.0455 30.1141 9.95041 30.7861 9.95041L31.8661 9.98609C31.8661 6.60886 32.2501 4.26621 33.0181 2.95813C33.7381 1.72139 34.9261 1.10303 36.5821 1.10303C37.5421 1.10303 38.4181 1.34086 39.2101 1.81653C39.5461 2.03058 39.7981 2.29219 39.9661 2.60138C40.1581 2.91056 40.2541 3.20785 40.2541 3.49325C40.2541 3.85 40.1101 4.21864 39.8221 4.59917C39.5581 4.9797 39.1501 5.16997 38.5981 5.16997C38.3821 5.16997 38.1061 5.00349 37.7701 4.67052C37.6501 4.55161 37.5181 4.44458 37.3741 4.34945C37.2301 4.25431 37.0741 4.20675 36.9061 4.20675ZM47.5924 19.6897C47.5924 20.5934 47.7244 21.295 47.9884 21.7945C48.2764 22.2702 48.6364 22.508 49.0684 22.508C49.3084 22.508 49.5364 22.4961 49.7524 22.4723C49.9684 22.4247 50.1844 22.401 50.4004 22.401C50.6404 22.401 50.8444 22.5199 51.0124 22.7577C51.2044 22.9955 51.3004 23.2572 51.3004 23.5426C51.3004 24.1134 51.0244 24.5652 50.4724 24.8982C49.9444 25.2074 49.2244 25.362 48.3124 25.362C47.6644 25.362 47.0044 25.1717 46.3324 24.7912C45.6844 24.3869 45.1444 23.7685 44.7124 22.9361C44.2804 22.0799 44.0644 21.0215 44.0644 19.761C44.0644 17.0497 44.1124 14.7546 44.2084 12.8758C44.3284 10.6401 44.3884 7.82181 44.3884 4.4208C44.3884 3.35055 44.4484 2.60138 44.5684 2.17328C44.7124 1.84031 44.9404 1.59059 45.2524 1.4241C45.5884 1.23384 45.9364 1.1387 46.2964 1.1387C46.6564 1.1387 46.9684 1.19816 47.2324 1.31708C47.5204 1.43599 47.7124 1.62626 47.8084 1.88788C47.9044 2.17328 47.9644 2.45868 47.9884 2.74408C48.0364 3.00569 48.0604 3.38622 48.0604 3.88567C48.0604 4.86079 48.0244 5.80023 47.9524 6.70399C47.9044 7.79802 47.8804 8.59476 47.8804 9.09421C47.6884 13.2801 47.5924 16.8119 47.5924 19.6897ZM56.0918 2.31598C56.9318 2.38733 57.6638 2.61327 58.2878 2.9938C58.9118 3.35055 59.2238 3.89757 59.2238 4.63485C59.2238 5.18186 58.9598 5.62185 58.4318 5.95482C57.9278 6.264 57.3158 6.41859 56.5958 6.41859C55.8998 6.41859 55.4198 6.24022 55.1558 5.88347C54.8918 5.52672 54.7598 5.15808 54.7598 4.77755C54.7598 4.06405 54.8318 3.46947 54.9758 2.9938C55.1438 2.51813 55.5158 2.29219 56.0918 2.31598ZM58.9718 18.12V19.1545C58.9718 20.0821 58.9958 20.9621 59.0438 21.7945C59.1158 22.6031 59.1998 23.4236 59.2958 24.2561C59.2958 24.5415 59.1278 24.8031 58.7918 25.0409C58.4558 25.255 58.1438 25.362 57.8558 25.362C57.3998 25.362 56.9318 25.2787 56.4518 25.1123C55.9958 24.922 55.7198 24.6961 55.6238 24.4344C55.4798 23.6734 55.4078 22.9955 55.4078 22.401C55.4078 20.4507 55.3478 18.2627 55.2278 15.8368C55.1318 13.6963 55.0838 12.1979 55.0838 11.3417C55.0838 10.9136 55.2998 10.545 55.7318 10.2358C56.1638 9.92663 56.6198 9.77204 57.0998 9.77204C57.7958 9.77204 58.2758 9.92663 58.5398 10.2358C58.8278 10.545 58.9718 11.0326 58.9718 11.6985V18.12ZM76.1347 9.48664C76.6147 9.48664 76.9867 9.60556 77.2507 9.84339C77.5387 10.0574 77.6827 10.3309 77.6827 10.6639C77.6827 10.9017 77.6347 11.1515 77.5387 11.4131C77.4667 11.6509 77.3827 11.9006 77.2867 12.1623C76.7347 13.4466 75.5707 15.2422 73.7947 17.5492C75.6187 19.8799 77.0947 21.3783 78.2227 22.0442C78.3187 22.0918 78.4987 22.175 78.7627 22.2939C79.0267 22.4129 79.2307 22.5556 79.3747 22.722C79.5427 22.8885 79.6267 23.0788 79.6267 23.2928C79.6267 23.8161 79.4227 24.2442 79.0147 24.5771C78.6307 24.8863 78.1627 25.0409 77.6107 25.0409C76.6747 25.0409 75.6547 24.5296 74.5507 23.5069C73.4467 22.4604 72.5107 21.3664 71.7427 20.2248C71.1907 21.0572 70.5547 21.8896 69.8347 22.722C69.1387 23.5307 68.4907 24.2204 67.8907 24.7912C67.6507 25.0528 67.3627 25.255 67.0267 25.3977C66.7147 25.5404 66.4027 25.6117 66.0907 25.6117C65.6587 25.6117 65.2747 25.5166 64.9387 25.3263C64.6027 25.136 64.4347 24.8031 64.4347 24.3274C64.4347 24.2085 64.5187 24.0182 64.6867 23.7566C64.8547 23.4712 64.9507 23.3047 64.9747 23.2572C65.2627 22.7577 65.6467 22.2464 66.1267 21.7231C66.6067 21.1761 66.9067 20.8313 67.0267 20.6886C67.3147 20.3318 67.6267 19.987 67.9627 19.654C68.1547 19.4399 68.4427 19.107 68.8267 18.6551C69.2107 18.2032 69.4747 17.8465 69.6187 17.5848L68.3587 15.8725C67.7587 15.1827 67.2427 14.6357 66.8107 14.2314C66.3787 13.8033 66.0307 13.5893 65.7667 13.5893C65.3827 13.5893 65.0227 13.6963 64.6867 13.9103C64.3987 14.1006 64.1107 14.1957 63.8227 14.1957C63.5107 14.1957 63.2707 14.1244 63.1027 13.9817C62.9347 13.8152 62.8507 13.6368 62.8507 13.4466C62.8507 12.6379 63.1747 11.9482 63.8227 11.3774C64.4707 10.7828 65.2867 10.4855 66.2707 10.4855C67.2067 10.4855 68.0347 10.8066 68.7547 11.4488C69.4987 12.0671 70.2307 12.8995 70.9507 13.946C71.0467 14.0411 71.1547 14.1957 71.2747 14.4098C71.3947 14.6238 71.5147 14.8022 71.6347 14.9449C71.8987 14.5644 72.3787 13.8271 73.0747 12.7331C73.8187 11.425 74.2627 10.6758 74.4067 10.4855C74.9107 9.8196 75.4867 9.48664 76.1347 9.48664Z" fill="#D00707"/>
</svg>
