<svg width="130" height="52" viewBox="0 0 130 52" fill="none" xmlns="http://www.w3.org/2000/svg">
<path d="M14.3997 41.0807H8.79648V18.046H0.352539V12.2823H22.824V18.046H14.3997V41.0807ZM31.5423 13.7282C31.5423 14.237 31.4444 14.7123 31.2483 15.1541C31.0656 15.5959 30.811 15.9842 30.4844 16.3189C30.1578 16.6402 29.7726 16.9013 29.3285 17.1021C28.8973 17.2895 28.4338 17.3833 27.9373 17.3833C27.4411 17.3833 26.9709 17.2895 26.5268 17.1021C26.0958 16.9013 25.717 16.6402 25.3905 16.3189C25.0771 15.9842 24.8224 15.5959 24.6264 15.1541C24.4436 14.7123 24.3522 14.237 24.3522 13.7282C24.3522 13.2329 24.4436 12.7643 24.6264 12.3225C24.8224 11.8673 25.0771 11.479 25.3905 11.1577C25.717 10.823 26.0958 10.5619 26.5268 10.3745C26.9709 10.1737 27.4411 10.0732 27.9373 10.0732C28.4338 10.0732 28.8973 10.1737 29.3285 10.3745C29.7726 10.5619 30.1578 10.823 30.4844 11.1577C30.811 11.479 31.0656 11.8673 31.2483 12.3225C31.4444 12.7643 31.5423 13.2329 31.5423 13.7282ZM30.6216 41.0807H25.2338V19.5723H30.6216V41.0807ZM53.0538 23.8498L49.1353 27.8864C48.9395 27.3241 48.6718 26.822 48.3321 26.3802C47.9926 25.9251 47.6074 25.5435 47.1763 25.2355C46.7584 24.9276 46.3013 24.6933 45.8048 24.5326C45.3086 24.372 44.7991 24.2917 44.2767 24.2917C43.5453 24.2917 42.8531 24.4456 42.2001 24.7536C41.56 25.0615 40.9983 25.4966 40.5152 26.0589C40.045 26.6078 39.6726 27.2639 39.3985 28.0271C39.1243 28.7902 38.9871 29.6336 38.9871 30.5574C38.9871 31.307 39.1243 32.0101 39.3985 32.6662C39.6726 33.3221 40.045 33.8979 40.5152 34.3931C40.9983 34.8885 41.56 35.2768 42.2001 35.5579C42.8531 35.8392 43.5453 35.9796 44.2767 35.9796C44.7991 35.9796 45.302 35.9061 45.7853 35.7588C46.2687 35.6116 46.7191 35.404 47.1372 35.1361C47.5681 34.8551 47.9469 34.5203 48.2735 34.132C48.6129 33.7304 48.8874 33.2886 49.0963 32.8066L53.0145 36.8433C52.5183 37.5663 51.9435 38.2156 51.2905 38.7911C50.6504 39.3669 49.9517 39.8556 49.1942 40.2573C48.4498 40.6589 47.6596 40.9603 46.8237 41.161C46.0009 41.3751 45.1519 41.4823 44.2767 41.4823C42.8009 41.4823 41.41 41.201 40.1038 40.6389C38.8108 40.0631 37.6745 39.28 36.6949 38.2891C35.7282 37.2984 34.9643 36.1402 34.4026 34.8148C33.8411 33.4893 33.5602 32.0704 33.5602 30.5574C33.5602 28.9106 33.8411 27.371 34.4026 25.9384C34.9643 24.5059 35.7282 23.2608 36.6949 22.2031C37.6745 21.132 38.8108 20.2885 40.1038 19.6727C41.41 19.0568 42.8009 18.7489 44.2767 18.7489C45.1519 18.7489 46.0073 18.8627 46.8432 19.0903C47.6922 19.3179 48.4955 19.6526 49.253 20.0944C50.0237 20.5228 50.7288 21.0517 51.3689 21.6809C52.0218 22.3102 52.5836 23.0332 53.0538 23.8498ZM61.0667 41.0807H55.679V11.0171H61.0667V29.975L69.0403 19.6124H75.1923L68.2373 28.5692L75.1923 41.0807H69.0403L64.7891 33.2686L61.0667 38.3294V41.0807ZM83.6166 13.7282C83.6166 14.237 83.5185 14.7123 83.3227 15.1541C83.1397 15.5959 82.8851 15.9842 82.5587 16.3189C82.2321 16.6402 81.8467 16.9013 81.4026 17.1021C80.9717 17.2895 80.5081 17.3833 80.0117 17.3833C79.5155 17.3833 79.0452 17.2895 78.6012 17.1021C78.17 16.9013 77.7913 16.6402 77.4649 16.3189C77.1514 15.9842 76.8968 15.5959 76.7007 15.1541C76.518 14.7123 76.4265 14.237 76.4265 13.7282C76.4265 13.2329 76.518 12.7643 76.7007 12.3225C76.8968 11.8673 77.1514 11.479 77.4649 11.1577C77.7913 10.823 78.17 10.5619 78.6012 10.3745C79.0452 10.1737 79.5155 10.0732 80.0117 10.0732C80.5081 10.0732 80.9717 10.1737 81.4026 10.3745C81.8467 10.5619 82.2321 10.823 82.5587 11.1577C82.8851 11.479 83.1397 11.8673 83.3227 12.3225C83.5185 12.7643 83.6166 13.2329 83.6166 13.7282ZM82.6957 41.0807H77.3082V19.5723H82.6957V41.0807ZM97.3111 41.0807C96.018 41.0807 94.8033 40.8331 93.667 40.3376C92.5307 39.829 91.5317 39.1394 90.6695 38.2691C89.8205 37.3854 89.1478 36.3612 88.6516 35.1965C88.1682 34.0317 87.9267 32.7866 87.9267 31.4611V25.0749H85.3211V19.6124H87.9267V11.0171H93.2556V19.6124H101.366V25.0749H93.2556V31.4611C93.2556 32.0369 93.36 32.579 93.5691 33.0879C93.778 33.5831 94.0653 34.0183 94.431 34.3931C94.7969 34.7682 95.2278 35.0692 95.724 35.2968C96.2205 35.5112 96.7493 35.6182 97.3111 35.6182H101.366V41.0807H97.3111ZM120.762 41.0807H103.267L112.103 25.0749H103.267V19.6124H120.762L111.926 35.6182H120.762V41.0807Z" fill="#1D4ED8"/>
<path d="M127.795 24.4224C127.79 24.4199 127.786 24.4185 127.782 24.4164L126.032 23.3802C125.923 23.5075 125.774 23.592 125.611 23.6196C125.448 23.6471 125.281 23.6159 125.138 23.5313C124.995 23.4465 124.885 23.3135 124.826 23.155C124.768 22.9964 124.765 22.822 124.819 22.6616L123.057 21.6183C123.009 21.5903 122.953 21.5828 122.9 21.5973C122.848 21.6118 122.803 21.6471 122.775 21.6955L117.545 30.983L117.544 30.9836C117.531 31.0074 117.522 31.034 117.518 31.0614C117.515 31.0891 117.517 31.1168 117.524 31.1437C117.531 31.1706 117.543 31.1955 117.559 31.2177C117.576 31.2397 117.596 31.258 117.62 31.272L119.382 32.314C119.491 32.187 119.64 32.1026 119.803 32.0749C119.966 32.0474 120.133 32.0787 120.276 32.1632C120.419 32.2479 120.529 32.3806 120.587 32.5388C120.646 32.697 120.649 32.8711 120.596 33.0315L122.336 34.06C122.343 34.0655 122.35 34.0713 122.357 34.0759C122.381 34.0899 122.407 34.0987 122.434 34.1025C122.46 34.1061 122.488 34.1042 122.514 34.097C122.54 34.0899 122.564 34.0776 122.586 34.0606C122.607 34.0438 122.625 34.0227 122.639 33.9986V33.9989L127.87 24.7108C127.884 24.6868 127.892 24.6603 127.896 24.6328C127.899 24.6053 127.898 24.5774 127.89 24.5506C127.884 24.5238 127.871 24.4987 127.855 24.4767C127.839 24.4547 127.818 24.4362 127.795 24.4224ZM126.295 25.1434L122.217 32.3836C122.203 32.4077 122.185 32.4288 122.164 32.4456C122.142 32.4626 122.118 32.4749 122.092 32.482C122.066 32.4892 122.038 32.4911 122.012 32.4875C121.985 32.484 121.959 32.4749 121.935 32.4609L119.195 30.8391C119.172 30.8251 119.151 30.8067 119.135 30.7848C119.118 30.7628 119.106 30.7376 119.099 30.711C119.092 30.6842 119.09 30.6562 119.094 30.6288C119.098 30.6013 119.106 30.5747 119.12 30.5509L123.198 23.3106C123.225 23.2621 123.27 23.2268 123.323 23.2123C123.375 23.1978 123.431 23.2054 123.479 23.2333L126.219 24.8553C126.243 24.8691 126.263 24.8876 126.28 24.9095C126.296 24.9315 126.308 24.9566 126.315 24.9833C126.322 25.0101 126.324 25.038 126.321 25.0655C126.317 25.0929 126.308 25.1194 126.295 25.1434Z" fill="#1D4ED8"/>
<path d="M124.098 27.6535L123.23 27.488L123.108 26.6374C123.106 26.6248 123.1 26.6131 123.092 26.604C123.083 26.5949 123.072 26.5887 123.06 26.5863C123.048 26.5839 123.035 26.5854 123.024 26.5907C123.013 26.596 123.003 26.6047 122.997 26.6157L122.576 27.3631L121.73 27.2018C121.717 27.1995 121.705 27.2011 121.694 27.2064C121.682 27.2117 121.673 27.2203 121.667 27.2313C121.661 27.2423 121.658 27.2549 121.659 27.2675C121.66 27.2801 121.665 27.292 121.673 27.3017L122.233 27.9726L121.812 28.7198C121.805 28.731 121.803 28.7437 121.804 28.7563C121.805 28.7692 121.81 28.7812 121.818 28.7908C121.826 28.8004 121.837 28.807 121.849 28.81C121.861 28.813 121.874 28.8122 121.885 28.8075L122.665 28.4906L123.239 29.1785C123.247 29.1878 123.258 29.1947 123.27 29.1977C123.281 29.2007 123.294 29.1999 123.306 29.1955C123.317 29.1911 123.327 29.1832 123.334 29.1728C123.341 29.1623 123.344 29.15 123.344 29.1374L123.329 28.215L124.116 27.767C124.127 27.7608 124.136 27.7513 124.141 27.74C124.146 27.7286 124.148 27.7159 124.146 27.7034C124.144 27.6911 124.138 27.6796 124.13 27.6707C124.121 27.6618 124.11 27.6558 124.098 27.6535Z" fill="#1D4ED8"/>
</svg>
