<svg width="83" height="28" viewBox="0 0 83 28" fill="none" xmlns="http://www.w3.org/2000/svg">
<path fill-rule="evenodd" clip-rule="evenodd" d="M27.9636 1.05794H38.507L38.514 5.26181L35.918 5.2549L42.0747 19.7786L48.1273 5.26871H45.4619L45.455 1.07175L53.9022 1.06485L53.8883 3.46015L43.7267 27.0542C41.2765 27.0611 39.6801 26.1776 38.8263 24.3276L30.4624 5.26871H27.9567L27.9636 1.05794ZM13.45 0.319336C20.7867 0.319336 26.7351 6.27653 26.7351 13.6212C26.7351 20.9659 20.7867 26.9162 13.45 26.9162C6.12031 26.9162 0.171875 20.9659 0.171875 13.6212C0.171875 6.27653 6.12031 0.319336 13.45 0.319336ZM13.4153 4.66816C18.038 4.66816 21.7862 8.72016 21.7862 13.7178C21.7862 18.7155 18.038 22.7606 13.4153 22.7606C8.78566 22.7606 5.03752 18.7155 5.03752 13.7178C5.03752 8.72016 8.78566 4.66816 13.4153 4.66816ZM68.8739 0.319336C76.2106 0.319336 82.159 6.27653 82.159 13.6212C82.159 20.9659 76.2106 26.9162 68.8739 26.9162C61.5442 26.9162 55.5958 20.9659 55.5958 13.6212C55.5958 6.27653 61.5442 0.319336 68.8739 0.319336ZM68.8392 4.66816C73.4619 4.66816 77.2101 8.72016 77.2101 13.7178C77.2101 18.7155 73.4619 22.7606 68.8392 22.7606C64.2096 22.7606 60.4614 18.7155 60.4614 13.7178C60.4614 8.72016 64.2096 4.66816 68.8392 4.66816Z" fill="#4C3494"/>
</svg>
