<svg width="29" height="34" viewBox="0 0 29 34" fill="none" xmlns="http://www.w3.org/2000/svg">
<g clip-path="url(#clip0_32_10815)">
<path d="M24.3419 3.51066C22.8383 1.77663 20.1201 1.0332 16.6428 1.0332H6.55063C6.20659 1.03322 5.87383 1.1574 5.61218 1.38344C5.35054 1.60947 5.17717 1.92252 5.12325 2.26631L0.921061 29.2308C0.837535 29.7625 1.24448 30.244 1.77715 30.244H8.00769L9.57245 20.2024L9.52389 20.5168C9.63537 19.807 10.2354 19.2835 10.9459 19.2835H13.9066C19.723 19.2835 24.2773 16.8933 25.6077 9.97884C25.6472 9.77435 25.6814 9.57531 25.711 9.38085C25.543 9.29089 25.543 9.29089 25.711 9.38085C26.1071 6.82522 25.7083 5.08562 24.3419 3.51066Z" fill="#27346A"/>
<path d="M11.9565 8.46023C12.1268 8.37817 12.3131 8.33564 12.5018 8.33576H20.4139C21.3508 8.33576 22.2247 8.39745 23.0232 8.52748C23.2467 8.56353 23.469 8.60657 23.6898 8.65654C24.0028 8.72641 24.3122 8.81193 24.6168 8.91279C25.0094 9.04544 25.375 9.19994 25.7111 9.38085C26.1071 6.82424 25.7083 5.08562 24.3419 3.51066C22.8374 1.77663 20.1201 1.0332 16.6428 1.0332H6.54977C5.83915 1.0332 5.23462 1.55662 5.12325 2.26631L0.921062 29.2298C0.837536 29.7624 1.24448 30.2432 1.77628 30.2432H8.0077L11.2541 9.41448C11.286 9.20975 11.3666 9.01593 11.489 8.84971C11.6113 8.68348 11.7718 8.54982 11.9565 8.46023Z" fill="#27346A"/>
<path d="M25.6082 9.97885C24.2778 16.8923 19.7236 19.2835 13.9071 19.2835H10.9455C10.235 19.2835 9.63489 19.807 9.52449 20.5168L7.57783 33.0024C7.50509 33.4677 7.86078 33.8894 8.3261 33.8894H13.5783C13.8792 33.8893 14.1701 33.7806 14.3989 33.5829C14.6276 33.3851 14.7791 33.1113 14.8261 32.8106L14.8773 32.5399L15.8672 26.1924L15.9309 25.8416C15.978 25.541 16.1294 25.2672 16.3582 25.0695C16.5869 24.8717 16.8778 24.763 17.1786 24.7629H17.9647C23.0525 24.7629 27.0364 22.6716 28.2006 16.6234C28.6865 14.0958 28.4351 11.9855 27.1496 10.5033C26.7597 10.0543 26.2755 9.68351 25.7114 9.38086C25.6809 9.5763 25.6478 9.77435 25.6082 9.97885Z" fill="#2790C3"/>
<path d="M24.3183 8.81951C24.1109 8.75823 23.9015 8.70397 23.6904 8.65683C23.4695 8.60768 23.2472 8.56493 23.0239 8.52865C22.2244 8.39774 21.3512 8.33594 20.4134 8.33594H12.5023C12.3135 8.33551 12.1271 8.3784 11.957 8.46139C11.7721 8.55071 11.6115 8.68429 11.489 8.85056C11.3666 9.01684 11.2861 9.2108 11.2545 9.41565L9.57298 20.2026L9.52441 20.5171C9.63503 19.8073 10.235 19.2838 10.9456 19.2838H13.9073C19.7236 19.2838 24.2778 16.8935 25.6082 9.97914C25.6478 9.77464 25.681 9.57647 25.7116 9.38114C25.3747 9.20121 25.01 9.04574 24.6173 8.91395C24.5182 8.88072 24.4186 8.84923 24.3184 8.81951" fill="#1F264F"/>
</g>
<defs>
<clipPath id="clip0_32_10815">
<rect width="27.6261" height="32.9731" fill="white" transform="translate(0.90625 0.944336)"/>
</clipPath>
</defs>
</svg>
