<svg width="24" height="25" viewBox="0 0 24 25" fill="none" xmlns="http://www.w3.org/2000/svg">
<path d="M8.51009 20.4991H8.43009C6.81845 20.4851 5.23012 20.1162 3.78009 19.4189C3.51336 19.2948 3.29375 19.0893 3.1534 18.8325C3.01304 18.5757 2.95932 18.2812 3.00009 17.9919C3.04444 17.7008 3.18048 17.4309 3.3888 17.2209C3.59712 17.0109 3.86706 16.8715 4.16009 16.8226C5.0587 16.7038 5.92318 16.4036 6.70009 15.9406C5.35125 14.8956 4.31284 13.5084 3.69491 11.926C3.07698 10.3437 2.90254 8.62513 3.19009 6.95252C3.22908 6.68759 3.34406 6.43934 3.52134 6.2373C3.69862 6.03527 3.93075 5.88796 4.19009 5.81291C4.44241 5.73438 4.71244 5.73103 4.96666 5.80326C5.22088 5.87549 5.4481 6.02012 5.62009 6.21921C6.20409 6.97808 6.93799 7.61109 7.777 8.07962C8.61601 8.54815 9.54255 8.84239 10.5001 8.94438C10.5458 7.77687 11.0521 6.67378 11.9101 5.87237C12.3385 5.46584 12.8443 5.14788 13.3979 4.937C13.9516 4.72612 14.542 4.62653 15.1349 4.64406C15.7278 4.66158 16.3112 4.79586 16.8512 5.03907C17.3912 5.28228 17.8769 5.62955 18.2801 6.06065C18.3851 6.15268 18.5156 6.21133 18.6547 6.229C18.7938 6.24667 18.935 6.22254 19.0601 6.15975C19.2985 6.04831 19.564 6.00636 19.8256 6.03879C20.0872 6.07123 20.3341 6.17671 20.5374 6.34292C20.7408 6.50914 20.8923 6.72925 20.9742 6.97755C21.0561 7.22586 21.0651 7.49213 21.0001 7.7453C20.7694 8.68684 20.3324 9.5665 19.7201 10.3218C19.5851 13.1409 18.331 15.7928 16.231 17.6992C14.1311 19.6057 11.3558 20.6121 8.51009 20.4991V20.4991ZM8.51009 18.5172H8.59009C9.75276 18.5568 10.9118 18.3673 12 17.9597C13.0882 17.5521 14.084 16.9345 14.9295 16.1427C15.7751 15.3509 16.4536 14.4006 16.9257 13.347C17.3979 12.2933 17.6543 11.1573 17.6801 10.0047C17.6966 9.68885 17.828 9.3896 18.0501 9.16239C18.294 8.85643 18.502 8.52397 18.6701 8.17142C18.3098 8.1721 17.9535 8.09742 17.6244 7.95227C17.2952 7.80712 17.0007 7.59477 16.7601 7.32909C16.5287 7.10172 16.2538 6.92238 15.9516 6.80156C15.6494 6.68075 15.3259 6.6209 15.0001 6.6255C14.671 6.61707 14.3435 6.67313 14.0363 6.79047C13.7291 6.90781 13.4483 7.08412 13.2101 7.30927C12.8887 7.61152 12.653 7.99212 12.5266 8.41298C12.4003 8.83385 12.3877 9.28022 12.4901 9.70742L12.7501 10.8371L11.5801 10.9164C10.3812 11.0133 9.17536 10.8508 8.04611 10.4401C6.91686 10.0294 5.89118 9.38046 5.04009 8.53808C5.00359 9.84259 5.33289 11.1316 5.99139 12.2617C6.64988 13.3919 7.61176 14.3189 8.77009 14.9398L9.72009 15.4749L9.09009 16.3668C8.40878 17.2522 7.47528 17.915 6.41009 18.2694C7.0934 18.4391 7.79566 18.5224 8.50009 18.5172H8.51009Z" fill="#6E7191"/>
</svg>
