<svg width="72" height="22" viewBox="0 0 72 22" fill="none" xmlns="http://www.w3.org/2000/svg">
<g clip-path="url(#clip0_32_10788)">
<path d="M37.3867 7.12236C37.3461 10.0856 40.2449 11.7391 42.4285 12.7223C44.672 13.731 45.4256 14.3779 45.4167 15.28C45.4 16.6605 43.6271 17.2698 41.9681 17.2935C39.0738 17.3349 37.3909 16.5715 36.053 15.9941L35.0104 20.502C36.3527 21.0735 38.8382 21.5719 41.4156 21.5938C47.4658 21.5938 51.4239 18.8343 51.4454 14.5559C51.4691 9.12607 43.3169 8.82552 43.3726 6.39853C43.3918 5.66261 44.1518 4.87728 45.8171 4.67761C46.6415 4.57674 48.917 4.49954 51.4969 5.59725L52.5095 1.23576C51.1221 0.768991 49.3389 0.322035 47.1188 0.322035C41.4242 0.322035 37.419 3.11905 37.3867 7.12236ZM62.2393 0.697716C61.1346 0.697716 60.2036 1.29314 59.7881 2.20687L51.1457 21.2734H57.1915L58.3945 18.2013H65.7823L66.4802 21.2734H71.8088L67.1588 0.697716H62.2393ZM63.0851 6.25598L64.8298 13.9824H60.0515L63.0851 6.25598ZM30.0566 0.697971L25.2911 21.2731H31.0522L35.8155 0.697458H30.0566V0.697971ZM21.534 0.697458L15.5376 14.7023L13.112 2.79457C12.8273 1.46529 11.7034 0.697716 10.4552 0.697716H0.65292L0.515625 1.2952C2.52799 1.69867 4.81438 2.34942 6.19958 3.04571C7.0473 3.47106 7.28903 3.84288 7.56752 4.85361L12.1618 21.2734H18.2498L27.5836 0.697716H21.534" fill="url(#paint0_linear_32_10788)"/>
</g>
<defs>
<linearGradient id="paint0_linear_32_10788" x1="33.2919" y1="22.0205" x2="33.8609" y2="0.171561" gradientUnits="userSpaceOnUse">
<stop stop-color="#222357"/>
<stop offset="1" stop-color="#254AA5"/>
</linearGradient>
<clipPath id="clip0_32_10788">
<rect width="71.2932" height="21.3571" fill="white" transform="translate(0.515625 0.321289)"/>
</clipPath>
</defs>
</svg>
